<?xml version="1.0" encoding="UTF-8" standalone="no"?>
<!DOCTYPE svg PUBLIC "-//W3C//DTD SVG 1.1//EN"
 "http://www.w3.org/Graphics/SVG/1.1/DTD/svg11.dtd">
<!-- Generated by graphviz version 2.43.0 (0)
 -->
<!-- Title: %3 Pages: 1 -->
<svg width="428pt" height="476pt"
 viewBox="0.00 0.00 428.14 476.00" xmlns="http://www.w3.org/2000/svg" xmlns:xlink="http://www.w3.org/1999/xlink">
<g id="graph0" class="graph" transform="scale(1 1) rotate(0) translate(4 472)">
<title>%3</title>
<polygon fill="white" stroke="transparent" points="-4,4 -4,-472 424.14,-472 424.14,4 -4,4"/>
<!-- BInput -->
<g id="node1" class="node">
<title>BInput</title>
<ellipse fill="none" stroke="blue" cx="210.64" cy="-378" rx="36" ry="18"/>
<text text-anchor="middle" x="210.64" y="-374.3" font-family="Times,serif" font-size="14.00">Input</text>
</g>
<!-- WCopy -->
<g id="node5" class="node">
<title>WCopy</title>
<polygon fill="none" stroke="black" points="105.64,-324 51.64,-324 51.64,-288 105.64,-288 105.64,-324"/>
<text text-anchor="middle" x="78.64" y="-302.3" font-family="Times,serif" font-size="14.00">Copy</text>
</g>
<!-- BInput&#45;&gt;WCopy -->
<g id="edge2" class="edge">
<title>BInput&#45;&gt;WCopy</title>
<path fill="none" stroke="black" d="M186.74,-364.32C166.76,-353.73 137.94,-338.45 115.09,-326.33"/>
<polygon fill="black" stroke="black" points="116.49,-323.11 106.02,-321.52 113.21,-329.29 116.49,-323.11"/>
</g>
<!-- WVisualize_Coincidence -->
<g id="node8" class="node">
<title>WVisualize_Coincidence</title>
<polygon fill="none" stroke="black" points="297.14,-324 124.14,-324 124.14,-288 297.14,-288 297.14,-324"/>
<text text-anchor="middle" x="210.64" y="-302.3" font-family="Times,serif" font-size="14.00">Visualize_Coincidence</text>
</g>
<!-- BInput&#45;&gt;WVisualize_Coincidence -->
<g id="edge7" class="edge">
<title>BInput&#45;&gt;WVisualize_Coincidence</title>
<path fill="none" stroke="black" stroke-dasharray="1,5" d="M210.64,-359.7C210.64,-351.98 210.64,-342.71 210.64,-334.11"/>
<polygon fill="black" stroke="black" points="214.14,-334.1 210.64,-324.1 207.14,-334.1 214.14,-334.1"/>
</g>
<!-- WOscilloscope -->
<g id="node9" class="node">
<title>WOscilloscope</title>
<polygon fill="none" stroke="black" points="420.14,-324 315.14,-324 315.14,-288 420.14,-288 420.14,-324"/>
<text text-anchor="middle" x="367.64" y="-302.3" font-family="Times,serif" font-size="14.00">Oscilloscope</text>
</g>
<!-- BInput&#45;&gt;WOscilloscope -->
<g id="edge8" class="edge">
<title>BInput&#45;&gt;WOscilloscope</title>
<path fill="none" stroke="black" stroke-dasharray="1,5" d="M236.57,-365.44C259.16,-355.37 292.51,-340.5 319.91,-328.28"/>
<polygon fill="black" stroke="black" points="321.62,-331.35 329.33,-324.08 318.77,-324.96 321.62,-331.35"/>
</g>
<!-- Bto_coincidence -->
<g id="node2" class="node">
<title>Bto_coincidence</title>
<ellipse fill="none" stroke="black" cx="78.64" cy="-234" rx="78.79" ry="18"/>
<text text-anchor="middle" x="78.64" y="-230.3" font-family="Times,serif" font-size="14.00">to_coincidence</text>
</g>
<!-- WCoincidence -->
<g id="node6" class="node">
<title>WCoincidence</title>
<polygon fill="none" stroke="black" points="130.14,-180 27.14,-180 27.14,-144 130.14,-144 130.14,-180"/>
<text text-anchor="middle" x="78.64" y="-158.3" font-family="Times,serif" font-size="14.00">Coincidence</text>
</g>
<!-- Bto_coincidence&#45;&gt;WCoincidence -->
<g id="edge4" class="edge">
<title>Bto_coincidence&#45;&gt;WCoincidence</title>
<path fill="none" stroke="black" d="M78.64,-215.7C78.64,-207.98 78.64,-198.71 78.64,-190.11"/>
<polygon fill="black" stroke="black" points="82.14,-190.1 78.64,-180.1 75.14,-190.1 82.14,-190.1"/>
</g>
<!-- BCoincidences -->
<g id="node3" class="node">
<title>BCoincidences</title>
<ellipse fill="none" stroke="black" cx="78.64" cy="-90" rx="71.49" ry="18"/>
<text text-anchor="middle" x="78.64" y="-86.3" font-family="Times,serif" font-size="14.00">Coincidences</text>
</g>
<!-- WSave_Coincidence -->
<g id="node7" class="node">
<title>WSave_Coincidence</title>
<polygon fill="none" stroke="black" points="150.64,-36 6.64,-36 6.64,0 150.64,0 150.64,-36"/>
<text text-anchor="middle" x="78.64" y="-14.3" font-family="Times,serif" font-size="14.00">Save_Coincidence</text>
</g>
<!-- BCoincidences&#45;&gt;WSave_Coincidence -->
<g id="edge6" class="edge">
<title>BCoincidences&#45;&gt;WSave_Coincidence</title>
<path fill="none" stroke="black" d="M78.64,-71.7C78.64,-63.98 78.64,-54.71 78.64,-46.11"/>
<polygon fill="black" stroke="black" points="82.14,-46.1 78.64,-36.1 75.14,-46.1 82.14,-46.1"/>
</g>
<!-- WRedPitaya -->
<g id="node4" class="node">
<title>WRedPitaya</title>
<polygon fill="none" stroke="black" points="255.14,-468 166.14,-468 166.14,-432 255.14,-432 255.14,-468"/>
<text text-anchor="middle" x="210.64" y="-446.3" font-family="Times,serif" font-size="14.00">RedPitaya</text>
</g>
<!-- WRedPitaya&#45;&gt;BInput -->
<g id="edge1" class="edge">
<title>WRedPitaya&#45;&gt;BInput</title>
<path fill="none" stroke="black" d="M210.64,-431.7C210.64,-423.98 210.64,-414.71 210.64,-406.11"/>
<polygon fill="black" stroke="black" points="214.14,-406.1 210.64,-396.1 207.14,-406.1 214.14,-406.1"/>
</g>
<!-- WCopy&#45;&gt;Bto_coincidence -->
<g id="edge3" class="edge">
<title>WCopy&#45;&gt;Bto_coincidence</title>
<path fill="none" stroke="black" d="M78.64,-287.7C78.64,-279.98 78.64,-270.71 78.64,-262.11"/>
<polygon fill="black" stroke="black" points="82.14,-262.1 78.64,-252.1 75.14,-262.1 82.14,-262.1"/>
</g>
<!-- WCoincidence&#45;&gt;BCoincidences -->
<g id="edge5" class="edge">
<title>WCoincidence&#45;&gt;BCoincidences</title>
<path fill="none" stroke="black" d="M78.64,-143.7C78.64,-135.98 78.64,-126.71 78.64,-118.11"/>
<polygon fill="black" stroke="black" points="82.14,-118.1 78.64,-108.1 75.14,-118.1 82.14,-118.1"/>
</g>
</g>
</svg>
