<?xml version="1.0" encoding="UTF-8" standalone="no"?>
<!DOCTYPE svg PUBLIC "-//W3C//DTD SVG 1.1//EN"
 "http://www.w3.org/Graphics/SVG/1.1/DTD/svg11.dtd">
<!-- Generated by graphviz version 2.43.0 (0)
 -->
<!-- Title: %3 Pages: 1 -->
<svg width="316pt" height="476pt"
 viewBox="0.00 0.00 316.00 476.00" xmlns="http://www.w3.org/2000/svg" xmlns:xlink="http://www.w3.org/1999/xlink">
<g id="graph0" class="graph" transform="scale(1 1) rotate(0) translate(4 472)">
<title>%3</title>
<polygon fill="white" stroke="transparent" points="-4,4 -4,-472 312,-472 312,4 -4,4"/>
<!-- BInput -->
<g id="node1" class="node">
<title>BInput</title>
<ellipse fill="none" stroke="blue" cx="206" cy="-378" rx="36" ry="18"/>
<text text-anchor="middle" x="206" y="-374.3" font-family="Times,serif" font-size="14.00">Input</text>
</g>
<!-- WCopy -->
<g id="node5" class="node">
<title>WCopy</title>
<polygon fill="none" stroke="black" points="184,-324 130,-324 130,-288 184,-288 184,-324"/>
<text text-anchor="middle" x="157" y="-302.3" font-family="Times,serif" font-size="14.00">Copy</text>
</g>
<!-- BInput&#45;&gt;WCopy -->
<g id="edge2" class="edge">
<title>BInput&#45;&gt;WCopy</title>
<path fill="none" stroke="black" d="M194.64,-360.76C188.75,-352.35 181.42,-341.89 174.8,-332.44"/>
<polygon fill="black" stroke="black" points="177.59,-330.31 168.99,-324.12 171.85,-334.32 177.59,-330.31"/>
</g>
<!-- WOscilloscope -->
<g id="node9" class="node">
<title>WOscilloscope</title>
<polygon fill="none" stroke="black" points="307.5,-324 202.5,-324 202.5,-288 307.5,-288 307.5,-324"/>
<text text-anchor="middle" x="255" y="-302.3" font-family="Times,serif" font-size="14.00">Oscilloscope</text>
</g>
<!-- BInput&#45;&gt;WOscilloscope -->
<g id="edge8" class="edge">
<title>BInput&#45;&gt;WOscilloscope</title>
<path fill="none" stroke="black" stroke-dasharray="1,5" d="M217.36,-360.76C223.25,-352.35 230.58,-341.89 237.2,-332.44"/>
<polygon fill="black" stroke="black" points="240.15,-334.32 243.01,-324.12 234.41,-330.31 240.15,-334.32"/>
</g>
<!-- Bto_spectrum -->
<g id="node2" class="node">
<title>Bto_spectrum</title>
<ellipse fill="none" stroke="black" cx="157" cy="-234" rx="68.49" ry="18"/>
<text text-anchor="middle" x="157" y="-230.3" font-family="Times,serif" font-size="14.00">to_spectrum</text>
</g>
<!-- WPHA -->
<g id="node6" class="node">
<title>WPHA</title>
<polygon fill="none" stroke="black" points="184,-180 130,-180 130,-144 184,-144 184,-180"/>
<text text-anchor="middle" x="157" y="-158.3" font-family="Times,serif" font-size="14.00">PHA</text>
</g>
<!-- Bto_spectrum&#45;&gt;WPHA -->
<g id="edge4" class="edge">
<title>Bto_spectrum&#45;&gt;WPHA</title>
<path fill="none" stroke="black" d="M157,-215.7C157,-207.98 157,-198.71 157,-190.11"/>
<polygon fill="black" stroke="black" points="160.5,-190.1 157,-180.1 153.5,-190.1 160.5,-190.1"/>
</g>
<!-- BPulseHeights -->
<g id="node3" class="node">
<title>BPulseHeights</title>
<ellipse fill="none" stroke="black" cx="157" cy="-90" rx="72.59" ry="18"/>
<text text-anchor="middle" x="157" y="-86.3" font-family="Times,serif" font-size="14.00">PulseHeights</text>
</g>
<!-- WPHA_to_Histogram -->
<g id="node7" class="node">
<title>WPHA_to_Histogram</title>
<polygon fill="none" stroke="black" points="152,-36 0,-36 0,0 152,0 152,-36"/>
<text text-anchor="middle" x="76" y="-14.3" font-family="Times,serif" font-size="14.00">PHA_to_Histogram</text>
</g>
<!-- BPulseHeights&#45;&gt;WPHA_to_Histogram -->
<g id="edge6" class="edge">
<title>BPulseHeights&#45;&gt;WPHA_to_Histogram</title>
<path fill="none" stroke="black" d="M137.8,-72.41C127.64,-63.63 114.97,-52.68 103.76,-42.99"/>
<polygon fill="black" stroke="black" points="105.76,-40.09 95.9,-36.2 101.18,-45.39 105.76,-40.09"/>
</g>
<!-- WShow_Histogram -->
<g id="node8" class="node">
<title>WShow_Histogram</title>
<polygon fill="none" stroke="black" points="308,-36 170,-36 170,0 308,0 308,-36"/>
<text text-anchor="middle" x="239" y="-14.3" font-family="Times,serif" font-size="14.00">Show_Histogram</text>
</g>
<!-- BPulseHeights&#45;&gt;WShow_Histogram -->
<g id="edge7" class="edge">
<title>BPulseHeights&#45;&gt;WShow_Histogram</title>
<path fill="none" stroke="black" stroke-dasharray="1,5" d="M176.43,-72.41C186.82,-63.54 199.8,-52.47 211.23,-42.71"/>
<polygon fill="black" stroke="black" points="213.52,-45.36 218.85,-36.2 208.97,-40.03 213.52,-45.36"/>
</g>
<!-- WRedPitaya -->
<g id="node4" class="node">
<title>WRedPitaya</title>
<polygon fill="none" stroke="black" points="250.5,-468 161.5,-468 161.5,-432 250.5,-432 250.5,-468"/>
<text text-anchor="middle" x="206" y="-446.3" font-family="Times,serif" font-size="14.00">RedPitaya</text>
</g>
<!-- WRedPitaya&#45;&gt;BInput -->
<g id="edge1" class="edge">
<title>WRedPitaya&#45;&gt;BInput</title>
<path fill="none" stroke="black" d="M206,-431.7C206,-423.98 206,-414.71 206,-406.11"/>
<polygon fill="black" stroke="black" points="209.5,-406.1 206,-396.1 202.5,-406.1 209.5,-406.1"/>
</g>
<!-- WCopy&#45;&gt;Bto_spectrum -->
<g id="edge3" class="edge">
<title>WCopy&#45;&gt;Bto_spectrum</title>
<path fill="none" stroke="black" d="M157,-287.7C157,-279.98 157,-270.71 157,-262.11"/>
<polygon fill="black" stroke="black" points="160.5,-262.1 157,-252.1 153.5,-262.1 160.5,-262.1"/>
</g>
<!-- WPHA&#45;&gt;BPulseHeights -->
<g id="edge5" class="edge">
<title>WPHA&#45;&gt;BPulseHeights</title>
<path fill="none" stroke="black" d="M157,-143.7C157,-135.98 157,-126.71 157,-118.11"/>
<polygon fill="black" stroke="black" points="160.5,-118.1 157,-108.1 153.5,-118.1 160.5,-118.1"/>
</g>
</g>
</svg>
